<svg width="32" height="33" viewBox="0 0 32 33" fill="none" xmlns="http://www.w3.org/2000/svg">
<mask id="path-1-inside-1_1175_24808" fill="white">
<path d="M15.0436 5.10441C15.3509 4.48182 15.5046 4.17053 15.7132 4.07107C15.8947 3.98454 16.1055 3.98454 16.287 4.07107C16.4956 4.17053 16.6493 4.48182 16.9566 5.10441L19.8722 11.011C19.9629 11.1948 20.0083 11.2867 20.0745 11.3581C20.1332 11.4213 20.2036 11.4725 20.2818 11.5088C20.3702 11.5499 20.4716 11.5647 20.6744 11.5943L27.1961 12.5476C27.8828 12.648 28.2262 12.6982 28.3851 12.8659C28.5234 13.0118 28.5884 13.2124 28.5621 13.4117C28.5318 13.6408 28.2832 13.8829 27.786 14.3672L23.0687 18.9619C22.9216 19.1051 22.8481 19.1767 22.8007 19.2619C22.7586 19.3374 22.7317 19.4203 22.7213 19.506C22.7096 19.6028 22.7269 19.704 22.7616 19.9063L23.8747 26.3961C23.9921 27.0806 24.0508 27.4229 23.9405 27.626C23.8445 27.8027 23.6739 27.9266 23.4762 27.9633C23.2489 28.0054 22.9416 27.8438 22.3269 27.5205L16.4966 24.4544C16.3149 24.3589 16.2241 24.3111 16.1284 24.2924C16.0437 24.2757 15.9565 24.2757 15.8718 24.2924C15.7761 24.3111 15.6853 24.3589 15.5036 24.4544L9.67331 27.5205C9.05864 27.8438 8.7513 28.0054 8.52404 27.9633C8.32632 27.9266 8.15571 27.8027 8.05973 27.626C7.94942 27.4229 8.00811 27.0806 8.12551 26.3961L9.2386 19.9063C9.2733 19.704 9.29065 19.6028 9.27891 19.506C9.26851 19.4203 9.24156 19.3374 9.19956 19.2619C9.15211 19.1767 9.07858 19.1051 8.93153 18.9619L4.21416 14.3672C3.71697 13.8829 3.46837 13.6408 3.43812 13.4117C3.4118 13.2124 3.47682 13.0118 3.61508 12.8659C3.77399 12.6982 4.11738 12.648 4.80414 12.5476L11.3258 11.5943C11.5286 11.5647 11.6301 11.5499 11.7184 11.5088C11.7966 11.4725 11.867 11.4213 11.9257 11.3581C11.992 11.2867 12.0373 11.1948 12.128 11.011L15.0436 5.10441Z"/>
</mask>
<path d="M11.3258 11.5943L11.5428 13.0786L11.3258 11.5943ZM11.7184 11.5088L11.0859 10.1487L11.7184 11.5088ZM12.128 11.011L10.783 10.3471L12.128 11.011ZM11.9257 11.3581L13.0246 12.3791L11.9257 11.3581ZM4.21416 14.3672L3.16756 15.4417H3.16756L4.21416 14.3672ZM3.43812 13.4117L4.92521 13.2153L3.43812 13.4117ZM4.80414 12.5476L4.5872 11.0634L4.80414 12.5476ZM3.61508 12.8659L2.52617 11.8343L2.52617 11.8343L3.61508 12.8659ZM9.2386 19.9063L7.76018 19.6527L9.2386 19.9063ZM9.27891 19.506L10.768 19.3254L9.27891 19.506ZM8.93153 18.9619L9.97813 17.8873L8.93153 18.9619ZM9.19956 19.2619L10.5101 18.5322L9.19956 19.2619ZM9.67331 27.5205L10.3715 28.8481L9.67331 27.5205ZM8.52404 27.9633L8.25064 29.4382L8.52404 27.9633ZM8.12551 26.3961L9.60393 26.6497L8.12551 26.3961ZM8.05973 27.626L6.74162 28.3419L8.05973 27.626ZM16.4966 24.4544L15.7984 25.782L16.4966 24.4544ZM16.1284 24.2924L16.4171 22.8204L16.1284 24.2924ZM15.5036 24.4544L14.8054 23.1268L15.5036 24.4544ZM15.8718 24.2924L16.1605 25.7643L15.8718 24.2924ZM23.8747 26.3961L25.3531 26.1426L23.8747 26.3961ZM23.9405 27.626L22.6224 26.91L23.9405 27.626ZM22.3269 27.5205L23.0251 26.1929L22.3269 27.5205ZM23.4762 27.9633L23.2028 26.4884L23.4762 27.9633ZM23.0687 18.9619L24.1153 20.0364V20.0364L23.0687 18.9619ZM22.8007 19.2619L24.1112 19.9916L22.8007 19.2619ZM22.7616 19.9063L21.2832 20.1599L22.7616 19.9063ZM22.7213 19.506L21.2322 19.3254L22.7213 19.506ZM27.1961 12.5476L27.413 11.0634L27.1961 12.5476ZM28.3851 12.8659L29.474 11.8343L28.3851 12.8659ZM27.786 14.3672L26.7394 13.2926L27.786 14.3672ZM28.5621 13.4117L27.075 13.2153L28.5621 13.4117ZM19.8722 11.011L21.2172 10.3471L19.8722 11.011ZM20.0745 11.3581L18.9756 12.3791L20.0745 11.3581ZM20.6744 11.5943L20.4574 13.0786L20.6744 11.5943ZM20.2818 11.5088L20.9143 10.1487L20.2818 11.5088ZM16.9566 5.10441L15.6115 5.76834V5.76834L16.9566 5.10441ZM16.287 4.07107L16.9326 2.7171L16.287 4.07107ZM15.0436 5.10441L16.3887 5.76834L15.0436 5.10441ZM15.7132 4.07107L15.0676 2.7171L15.7132 4.07107ZM15.6115 5.76834L18.5271 11.675L21.2172 10.3471L18.3017 4.44047L15.6115 5.76834ZM20.4574 13.0786L26.9791 14.0318L27.413 11.0634L20.8913 10.1101L20.4574 13.0786ZM26.7394 13.2926L22.0221 17.8873L24.1153 20.0364L28.8326 15.4417L26.7394 13.2926ZM21.2832 20.1599L22.3963 26.6497L25.3531 26.1426L24.24 19.6527L21.2832 20.1599ZM23.0251 26.1929L17.1948 23.1268L15.7984 25.782L21.6287 28.8481L23.0251 26.1929ZM14.8054 23.1268L8.97514 26.1929L10.3715 28.8481L16.2018 25.782L14.8054 23.1268ZM9.60393 26.6497L10.717 20.1599L7.76018 19.6527L6.6471 26.1426L9.60393 26.6497ZM9.97813 17.8873L5.26076 13.2926L3.16756 15.4417L7.88493 20.0364L9.97813 17.8873ZM5.02108 14.0318L11.5428 13.0786L11.1089 10.1101L4.5872 11.0634L5.02108 14.0318ZM13.4731 11.675L16.3887 5.76834L13.6986 4.44047L10.783 10.3471L13.4731 11.675ZM11.5428 13.0786C11.655 13.0622 12.017 13.0242 12.3509 12.8689L11.0859 10.1487C11.1092 10.1378 11.1321 10.1283 11.154 10.12C11.1758 10.1117 11.1954 10.1052 11.2121 10.1002C11.2445 10.0903 11.2653 10.0861 11.2664 10.0859C11.2672 10.0857 11.2648 10.0862 11.2579 10.0874C11.2509 10.0887 11.2411 10.0903 11.2272 10.0925C11.2133 10.0947 11.1969 10.0972 11.1768 10.1001C11.1566 10.1032 11.1346 10.1064 11.1089 10.1101L11.5428 13.0786ZM10.783 10.3471C10.7715 10.3704 10.7617 10.3903 10.7526 10.4086C10.7435 10.4268 10.7361 10.4416 10.7297 10.4542C10.7234 10.4667 10.7188 10.4756 10.7155 10.4818C10.7122 10.488 10.711 10.4902 10.7114 10.4894C10.7119 10.4885 10.7224 10.47 10.7417 10.4422C10.7517 10.4279 10.7639 10.4113 10.7785 10.3931C10.7931 10.3748 10.8092 10.356 10.8268 10.3371L13.0246 12.3791C13.2752 12.1093 13.4229 11.7767 13.4731 11.675L10.783 10.3471ZM12.3509 12.8689C12.605 12.7508 12.8338 12.5844 13.0246 12.3791L10.8268 10.3371C10.9001 10.2581 10.9881 10.1941 11.0859 10.1487L12.3509 12.8689ZM5.26076 13.2926C5.13377 13.1689 5.03489 13.0726 4.95191 12.989C4.86816 12.9046 4.81945 12.852 4.7908 12.8186C4.76027 12.7829 4.77773 12.7978 4.80794 12.8512C4.84166 12.9108 4.90159 13.0365 4.92521 13.2153L1.95103 13.6081C2.02592 14.1752 2.34398 14.5733 2.51127 14.7689C2.6944 14.9829 2.94039 15.2204 3.16756 15.4417L5.26076 13.2926ZM4.5872 11.0634C4.27341 11.1092 3.93486 11.1572 3.66097 11.2231C3.41077 11.2832 2.9196 11.419 2.52617 11.8343L4.704 13.8975C4.57993 14.0285 4.45769 14.095 4.39539 14.1235C4.33958 14.1491 4.3167 14.1509 4.36237 14.1399C4.40521 14.1296 4.4755 14.1156 4.59281 14.0965C4.70906 14.0775 4.84568 14.0575 5.02108 14.0318L4.5872 11.0634ZM4.92521 13.2153C4.95811 13.4644 4.87683 13.7151 4.704 13.8975L2.52617 11.8343C2.07681 12.3086 1.86549 12.9603 1.95103 13.6081L4.92521 13.2153ZM10.717 20.1599C10.7362 20.0479 10.8124 19.6915 10.768 19.3254L7.78982 19.6866C7.78671 19.6609 7.78471 19.6362 7.78361 19.6128C7.78252 19.5895 7.78239 19.5688 7.78273 19.5514C7.7834 19.5175 7.78587 19.4963 7.78599 19.4952C7.78608 19.4944 7.78581 19.4969 7.78481 19.5038C7.78381 19.5108 7.78232 19.5207 7.78009 19.5346C7.77786 19.5486 7.77515 19.5649 7.77175 19.585C7.76834 19.6052 7.76459 19.627 7.76018 19.6527L10.717 20.1599ZM7.88493 20.0364C7.90361 20.0546 7.91949 20.0701 7.93413 20.0844C7.94868 20.0986 7.96049 20.1103 7.9705 20.1202C7.98049 20.1302 7.9875 20.1373 7.99242 20.1424C7.99732 20.1474 7.99901 20.1493 7.99843 20.1486C7.99771 20.1478 7.98327 20.1322 7.96279 20.1051C7.95225 20.0912 7.9402 20.0745 7.92737 20.0549C7.91447 20.0353 7.90156 20.0142 7.88901 19.9916L10.5101 18.5322C10.3307 18.2101 10.0595 17.9666 9.97813 17.8873L7.88493 20.0364ZM10.768 19.3254C10.7342 19.0468 10.6466 18.7774 10.5101 18.5322L7.88901 19.9916C7.83649 19.8973 7.80281 19.7937 7.78982 19.6866L10.768 19.3254ZM8.97514 26.1929C8.81815 26.2755 8.69583 26.3398 8.5906 26.3929C8.48441 26.4464 8.41928 26.4765 8.37853 26.4935C8.33509 26.5115 8.35464 26.4995 8.41478 26.4873C8.4819 26.4737 8.61997 26.4555 8.79745 26.4884L8.25064 29.4382C8.81334 29.5425 9.29056 29.363 9.52826 29.2644C9.78855 29.1564 10.0906 28.9958 10.3715 28.8481L8.97514 26.1929ZM6.6471 26.1426C6.59346 26.4553 6.53415 26.7923 6.51191 27.0732C6.4916 27.3297 6.46847 27.839 6.74162 28.3419L9.37784 26.91C9.464 27.0686 9.48941 27.2056 9.49721 27.2736C9.50419 27.3346 9.49884 27.3569 9.50255 27.31C9.50603 27.266 9.51452 27.1948 9.53266 27.0772C9.55063 26.9607 9.57394 26.8245 9.60393 26.6497L6.6471 26.1426ZM8.79745 26.4884C9.0446 26.5342 9.25787 26.6892 9.37784 26.91L6.74162 28.3419C7.05356 28.9162 7.60805 29.319 8.25064 29.4382L8.79745 26.4884ZM17.1948 23.1268C17.0943 23.074 16.7788 22.8914 16.4171 22.8204L15.8397 25.7643C15.8144 25.7594 15.7903 25.7536 15.7677 25.7474C15.7451 25.7412 15.7255 25.735 15.709 25.7293C15.677 25.7181 15.6576 25.7093 15.6566 25.7088C15.6558 25.7085 15.6581 25.7095 15.6644 25.7126C15.6708 25.7157 15.6797 25.7202 15.6922 25.7266C15.7048 25.733 15.7195 25.7407 15.7376 25.7501C15.7557 25.7596 15.7753 25.7699 15.7984 25.782L17.1948 23.1268ZM16.2018 25.782C16.2249 25.7699 16.2445 25.7596 16.2626 25.7501C16.2807 25.7407 16.2954 25.733 16.308 25.7266C16.3205 25.7202 16.3294 25.7157 16.3358 25.7126C16.3421 25.7095 16.3444 25.7085 16.3436 25.7088C16.3426 25.7093 16.3233 25.7181 16.2912 25.7293C16.2747 25.735 16.2551 25.7412 16.2325 25.7474C16.2099 25.7536 16.1858 25.7594 16.1605 25.7643L15.5831 22.8204C15.2214 22.8914 14.906 23.074 14.8054 23.1268L16.2018 25.782ZM16.4171 22.8204C16.1417 22.7664 15.8585 22.7664 15.5831 22.8204L16.1605 25.7643C16.0546 25.7851 15.9456 25.7851 15.8397 25.7643L16.4171 22.8204ZM22.3963 26.6497C22.4263 26.8245 22.4496 26.9607 22.4676 27.0772C22.4857 27.1948 22.4942 27.266 22.4977 27.31C22.5014 27.3569 22.496 27.3346 22.503 27.2736C22.5108 27.2056 22.5362 27.0686 22.6224 26.91L25.2586 28.3419C25.5317 27.839 25.5086 27.3297 25.4883 27.0732C25.4661 26.7923 25.4068 26.4553 25.3531 26.1426L22.3963 26.6497ZM21.6287 28.8481C21.9096 28.9958 22.2117 29.1564 22.472 29.2644C22.7097 29.363 23.1869 29.5425 23.7496 29.4382L23.2028 26.4884C23.3802 26.4555 23.5183 26.4737 23.5854 26.4873C23.6456 26.4995 23.6651 26.5115 23.6217 26.4935C23.5809 26.4765 23.5158 26.4464 23.4096 26.3929C23.3044 26.3398 23.1821 26.2755 23.0251 26.1929L21.6287 28.8481ZM22.6224 26.91C22.7423 26.6892 22.9556 26.5342 23.2028 26.4884L23.7496 29.4382C24.3922 29.319 24.9467 28.9162 25.2586 28.3419L22.6224 26.91ZM22.0221 17.8873C21.9407 17.9666 21.6695 18.2101 21.4901 18.5322L24.1112 19.9916C24.0986 20.0142 24.0857 20.0353 24.0728 20.0549C24.06 20.0745 24.048 20.0912 24.0374 20.1051C24.0169 20.1322 24.0025 20.1478 24.0018 20.1486C24.0012 20.1493 24.0029 20.1474 24.0078 20.1424C24.0127 20.1373 24.0197 20.1302 24.0297 20.1202C24.0397 20.1103 24.0515 20.0986 24.0661 20.0844C24.0807 20.0701 24.0966 20.0546 24.1153 20.0364L22.0221 17.8873ZM24.24 19.6527C24.2356 19.627 24.2319 19.6052 24.2285 19.585C24.2251 19.5649 24.2224 19.5486 24.2201 19.5346C24.2179 19.5207 24.2164 19.5108 24.2154 19.5038C24.2144 19.4969 24.2141 19.4944 24.2142 19.4952C24.2143 19.4963 24.2168 19.5175 24.2175 19.5514C24.2178 19.5688 24.2177 19.5895 24.2166 19.6128C24.2155 19.6362 24.2135 19.6609 24.2104 19.6866L21.2322 19.3254C21.1878 19.6915 21.264 20.0479 21.2832 20.1599L24.24 19.6527ZM21.4901 18.5322C21.3536 18.7774 21.266 19.0468 21.2322 19.3254L24.2104 19.6866C24.1974 19.7937 24.1637 19.8973 24.1112 19.9916L21.4901 18.5322ZM26.9791 14.0318C27.1545 14.0575 27.2911 14.0775 27.4074 14.0965C27.5247 14.1156 27.595 14.1296 27.6378 14.1399C27.6835 14.1509 27.6606 14.1491 27.6048 14.1235C27.5425 14.095 27.4203 14.0285 27.2962 13.8975L29.474 11.8343C29.0806 11.419 28.5894 11.2832 28.3392 11.2231C28.0653 11.1572 27.7268 11.1092 27.413 11.0634L26.9791 14.0318ZM28.8326 15.4417C29.0598 15.2204 29.3058 14.9829 29.4889 14.7689C29.6562 14.5733 29.9743 14.1752 30.0492 13.6081L27.075 13.2153C27.0986 13.0365 27.1586 12.9108 27.1923 12.8512C27.2225 12.7978 27.2399 12.7829 27.2094 12.8186C27.1808 12.852 27.132 12.9046 27.0483 12.989C26.9653 13.0726 26.8664 13.1689 26.7394 13.2926L28.8326 15.4417ZM27.2962 13.8975C27.1234 13.7151 27.0421 13.4644 27.075 13.2153L30.0492 13.6081C30.1347 12.9603 29.9234 12.3086 29.474 11.8343L27.2962 13.8975ZM18.5271 11.675C18.5773 11.7767 18.725 12.1093 18.9756 12.3791L21.1734 10.3371C21.191 10.356 21.2071 10.3748 21.2217 10.3931C21.2363 10.4113 21.2485 10.4279 21.2585 10.4422C21.2779 10.47 21.2883 10.4885 21.2888 10.4894C21.2892 10.4902 21.288 10.488 21.2847 10.4818C21.2814 10.4756 21.2768 10.4668 21.2705 10.4542C21.2641 10.4416 21.2567 10.4268 21.2476 10.4086C21.2385 10.3903 21.2287 10.3704 21.2172 10.3471L18.5271 11.675ZM20.8913 10.1101C20.8656 10.1064 20.8437 10.1032 20.8234 10.1001C20.8033 10.0972 20.787 10.0947 20.773 10.0925C20.7591 10.0903 20.7493 10.0887 20.7424 10.0874C20.7354 10.0862 20.733 10.0857 20.7338 10.0859C20.7349 10.0861 20.7557 10.0903 20.7881 10.1002C20.8048 10.1052 20.8244 10.1117 20.8462 10.12C20.8681 10.1283 20.891 10.1378 20.9143 10.1487L19.6493 12.8689C19.9832 13.0242 20.3452 13.0622 20.4574 13.0786L20.8913 10.1101ZM18.9756 12.3791C19.1664 12.5844 19.3952 12.7508 19.6493 12.8689L20.9143 10.1487C21.0121 10.1941 21.1001 10.2581 21.1734 10.3371L18.9756 12.3791ZM18.3017 4.44047C18.1612 4.156 18.0112 3.84865 17.8641 3.60835C17.7297 3.38887 17.4491 2.96335 16.9326 2.7171L15.6415 5.42504C15.4786 5.34738 15.3775 5.25158 15.3312 5.20111C15.2897 5.15589 15.281 5.1347 15.3055 5.17478C15.3285 5.21239 15.3635 5.27499 15.4179 5.38072C15.4719 5.48549 15.533 5.60933 15.6115 5.76834L18.3017 4.44047ZM16.3887 5.76834C16.4672 5.60933 16.5283 5.48549 16.5823 5.38072C16.6367 5.27499 16.6717 5.21239 16.6947 5.17478C16.7192 5.1347 16.7105 5.15589 16.669 5.20111C16.6227 5.25158 16.5216 5.34738 16.3588 5.42504L15.0676 2.7171C14.5511 2.96335 14.2705 3.38887 14.1361 3.60835C13.989 3.84865 13.839 4.156 13.6986 4.44047L16.3887 5.76834ZM16.9326 2.7171C16.3427 2.43586 15.6575 2.43586 15.0676 2.7171L16.3588 5.42504C16.1319 5.53321 15.8683 5.53321 15.6415 5.42504L16.9326 2.7171Z" fill="currentColor" mask="url(#path-1-inside-1_1175_24808)"/>
</svg>
