<svg width="14" height="18" viewBox="0 0 14 18" fill="none" xmlns="http://www.w3.org/2000/svg">
<path d="M0 2.4739C0 1.56982 0 1.11778 0.199677 0.868602C0.373631 0.651522 0.639513 0.51719 0.927334 0.500966C1.25772 0.482344 1.65613 0.733089 2.45296 1.23458L12.8224 7.76068C13.4809 8.17506 13.8101 8.38225 13.9248 8.64339C14.0251 8.8717 14.0251 9.1283 13.9248 9.35661C13.8101 9.61775 13.4809 9.82494 12.8224 10.2393L2.45296 16.7654C1.65613 17.2669 1.25772 17.5177 0.927334 17.499C0.639513 17.4828 0.373631 17.3485 0.199677 17.1314C0 16.8822 0 16.4302 0 15.5261V2.4739Z" fill="currentColor"/>
</svg>
